<svg width="960" height="720" viewBox="0 0 960 720" fill="none" xmlns="http://www.w3.org/2000/svg">
  <rect width="960" height="720" rx="36" fill="#ecfeff"/>
  <circle cx="750" cy="132" r="92" fill="#ccfbf1"/>
  <circle cx="172" cy="604" r="118" fill="#dbeafe"/>
  <rect x="138" y="140" width="684" height="432" rx="28" fill="white" stroke="#99f6e4" stroke-width="3"/>
  <rect x="184" y="190" width="232" height="332" rx="24" fill="#0f766e"/>
  <path d="M230 250h140c20 0 36 16 36 36v52h-74v130h-64V338h-74v-52c0-20 16-36 36-36Z" fill="#ffffff"/>
  <path d="M230 286h140" stroke="#99f6e4" stroke-width="18" stroke-linecap="round"/>
  <path d="M268 398h64" stroke="#99f6e4" stroke-width="18" stroke-linecap="round"/>
  <rect x="468" y="206" width="278" height="44" rx="12" fill="#e0f2fe"/>
  <rect x="468" y="278" width="206" height="44" rx="12" fill="#ccfbf1"/>
  <rect x="468" y="350" width="278" height="44" rx="12" fill="#e0f2fe"/>
  <rect x="468" y="422" width="236" height="44" rx="12" fill="#ccfbf1"/>
  <path d="M546 560c84-66 178-68 282-6" stroke="#0f766e" stroke-width="18" stroke-linecap="round"/>
  <path d="M120 108c88 44 162 42 222-6" stroke="#38bdf8" stroke-width="14" stroke-linecap="round"/>
  <text x="468" y="516" fill="#0f172a" font-family="Inter, Arial, sans-serif" font-size="38" font-weight="800">Smart inventory</text>
  <text x="468" y="552" fill="#0f766e" font-family="Inter, Arial, sans-serif" font-size="24" font-weight="600">Built for size, color and SKU control</text>
</svg>
